<svg xmlns="http://www.w3.org/2000/svg" xmlns:xlink="http://www.w3.org/1999/xlink" width="3641pt" height="2653pt" viewBox="0 0 3640.73 2652.56"><g id="graph0" class="graph" transform="scale(1 1) rotate(0) translate(4 2648.56)"><title>uk.gov.gchq.gaffer:core:pom:2.0.0-alpha-1.6-SNAPSHOT</title><polygon fill="#fff" stroke="transparent" points="-4 4 -4 -2648.56 3636.73 -2648.56 3636.73 4 -4 4"/><g id="node1" class="node"><title>uk.gov.gchq.gaffer:core:pom:2.0.0-alpha-1.6-SNAPSHOT</title><ellipse cx="2011.87" cy="-1608.79" fill="none" stroke="#000" rx="270.25" ry="18"/><text x="2011.87" y="-1605.09" font-family="Times,serif" font-size="14" text-anchor="middle">uk.gov.gchq.gaffer:core:pom:2.0.0-alpha-1.6-SNAPSHOT</text></g><g id="node2" class="node"><title>com.google.guava:guava:jar:30.1.1-jre:compile</title><ellipse cx="2845.67" cy="-1884.57" fill="none" stroke="#000" rx="227.46" ry="18"/><text x="2845.67" y="-1880.87" font-family="Times,serif" font-size="14" text-anchor="middle">com.google.guava:guava:jar:30.1.1-jre:compile</text></g><g id="edge1" class="edge"><title>uk.gov.gchq.gaffer:core:pom:2.0.0-alpha-1.6-SNAPSHOT-&gt;com.google.guava:guava:jar:30.1.1-jre:compile</title><path fill="none" stroke="#000" d="M2065.3,-1626.46C2212.81,-1675.25 2625.24,-1811.66 2783.11,-1863.88"/><polygon fill="#000" stroke="#000" points="2782.09 -1867.23 2792.69 -1867.05 2784.29 -1860.58 2782.09 -1867.23"/></g><g id="node3" class="node"><title>org.slf4j:slf4j-api:jar:1.7.36:compile</title><ellipse cx="1704.95" cy="-1478.01" fill="none" stroke="#000" rx="176.27" ry="18"/><text x="1704.95" y="-1474.31" font-family="Times,serif" font-size="14" text-anchor="middle">org.slf4j:slf4j-api:jar:1.7.36:compile</text></g><g id="edge2" class="edge"><title>uk.gov.gchq.gaffer:core:pom:2.0.0-alpha-1.6-SNAPSHOT-&gt;org.slf4j:slf4j-api:jar:1.7.36:compile</title><path fill="none" stroke="#000" d="M1969.84,-1590.88C1914.05,-1567.11 1815.63,-1525.17 1755.74,-1499.65"/><polygon fill="#000" stroke="#000" points="1757.04 -1496.41 1746.47 -1495.71 1754.3 -1502.85 1757.04 -1496.41"/></g><g id="node4" class="node"><title>org.slf4j:slf4j-reload4j:jar:1.7.36:compile</title><ellipse cx="1677.38" cy="-2074.3" fill="none" stroke="#000" rx="200.36" ry="18"/><text x="1677.38" y="-2070.6" font-family="Times,serif" font-size="14" text-anchor="middle">org.slf4j:slf4j-reload4j:jar:1.7.36:compile</text></g><g id="edge3" class="edge"><title>uk.gov.gchq.gaffer:core:pom:2.0.0-alpha-1.6-SNAPSHOT-&gt;org.slf4j:slf4j-reload4j:jar:1.7.36:compile</title><path fill="none" stroke="#000" d="M1998.76,-1627.04C1947.08,-1698.96 1757.35,-1963.01 1696.38,-2047.86"/><polygon fill="#000" stroke="#000" points="1693.4 -2046.02 1690.41 -2056.18 1699.08 -2050.1 1693.4 -2046.02"/></g><g id="node5" class="node"><title>org.junit.jupiter:junit-jupiter:jar:5.9.0:test</title><ellipse cx="1229.59" cy="-1644.25" fill="none" stroke="#000" rx="206.06" ry="18"/><text x="1229.59" y="-1640.55" font-family="Times,serif" font-size="14" text-anchor="middle">org.junit.jupiter:junit-jupiter:jar:5.9.0:test</text></g><g id="edge4" class="edge"><title>uk.gov.gchq.gaffer:core:pom:2.0.0-alpha-1.6-SNAPSHOT-&gt;org.junit.jupiter:junit-jupiter:jar:5.9.0:test</title><path fill="none" stroke="#000" d="M1788.22,-1618.92C1672.84,-1624.15 1533.49,-1630.47 1422.83,-1635.49"/><polygon fill="#000" stroke="#000" points="1422.38 -1632 1412.55 -1635.95 1422.7 -1639 1422.38 -1632"/></g><g id="node6" class="node"><title>org.junit.jupiter:junit-jupiter-engine:jar:5.9.0:test</title><ellipse cx="1718.75" cy="-1009.5" fill="none" stroke="#000" rx="240.46" ry="18"/><text x="1718.75" y="-1005.8" font-family="Times,serif" font-size="14" text-anchor="middle">org.junit.jupiter:junit-jupiter-engine:jar:5.9.0:test</text></g><g id="edge5" class="edge"><title>uk.gov.gchq.gaffer:core:pom:2.0.0-alpha-1.6-SNAPSHOT-&gt;org.junit.jupiter:junit-jupiter-engine:jar:5.9.0:test</title><path fill="none" stroke="#000" d="M2002.94,-1590.52C1960.88,-1504.53 1782.52,-1139.88 1732.08,-1036.76"/><polygon fill="#000" stroke="#000" points="1735.15 -1035.06 1727.61 -1027.62 1728.86 -1038.14 1735.15 -1035.06"/></g><g id="node7" class="node"><title>org.assertj:assertj-core:jar:3.23.1:test</title><ellipse cx="2094.48" cy="-2159.64" fill="none" stroke="#000" rx="187.37" ry="18"/><text x="2094.48" y="-2155.94" font-family="Times,serif" font-size="14" text-anchor="middle">org.assertj:assertj-core:jar:3.23.1:test</text></g><g id="edge6" class="edge"><title>uk.gov.gchq.gaffer:core:pom:2.0.0-alpha-1.6-SNAPSHOT-&gt;org.assertj:assertj-core:jar:3.23.1:test</title><path fill="none" stroke="#000" d="M2014.57,-1626.8C2026.62,-1707.14 2075.49,-2033.06 2090.24,-2131.41"/><polygon fill="#000" stroke="#000" points="2086.81 -2132.11 2091.75 -2141.48 2093.73 -2131.07 2086.81 -2132.11"/></g><g id="node8" class="node"><title>org.mockito:mockito-junit-jupiter:jar:4.6.1:test</title><ellipse cx="2341.29" cy="-1005.25" fill="none" stroke="#000" rx="226.66" ry="18"/><text x="2341.29" y="-1001.55" font-family="Times,serif" font-size="14" text-anchor="middle">org.mockito:mockito-junit-jupiter:jar:4.6.1:test</text></g><g id="edge7" class="edge"><title>uk.gov.gchq.gaffer:core:pom:2.0.0-alpha-1.6-SNAPSHOT-&gt;org.mockito:mockito-junit-jupiter:jar:4.6.1:test</title><path fill="none" stroke="#000" d="M2021.73,-1590.72C2068.76,-1504.56 2270.33,-1135.26 2326.63,-1032.11"/><polygon fill="#000" stroke="#000" points="2329.75 -1033.69 2331.47 -1023.24 2323.61 -1030.34 2329.75 -1033.69"/></g><g id="node9" class="node"><title>com.google.guava:failureaccess:jar:1.0.1:compile</title><ellipse cx="2730.88" cy="-2294.45" fill="none" stroke="#000" rx="238.56" ry="18"/><text x="2730.88" y="-2290.75" font-family="Times,serif" font-size="14" text-anchor="middle">com.google.guava:failureaccess:jar:1.0.1:compile</text></g><g id="edge8" class="edge"><title>com.google.guava:guava:jar:30.1.1-jre:compile-&gt;com.google.guava:failureaccess:jar:1.0.1:compile</title><path fill="none" stroke="#000" d="M2840.59,-1902.71C2822.44,-1967.51 2760.74,-2187.83 2738.75,-2266.36"/><polygon fill="#000" stroke="#000" points="2735.36 -2265.48 2736.03 -2276.05 2742.1 -2267.37 2735.36 -2265.48"/></g><g id="node10" class="node"><title>com.google.guava:listenablefuture:jar:9999.0-empty-to-avoid-conflict-with-guava:compile</title><ellipse cx="2740.58" cy="-1550.3" fill="none" stroke="#000" rx="423.52" ry="18"/><text x="2740.58" y="-1546.6" font-family="Times,serif" font-size="14" text-anchor="middle">com.google.guava:listenablefuture:jar:9999.0-empty-to-avoid-conflict-with-guava:compile</text></g><g id="edge9" class="edge"><title>com.google.guava:guava:jar:30.1.1-jre:compile-&gt;com.google.guava:listenablefuture:jar:9999.0-empty-to-avoid-conflict-with-guava:compile</title><path fill="none" stroke="#000" d="M2839.87,-1866.12C2822.43,-1810.65 2770.38,-1645.09 2749.45,-1578.5"/><polygon fill="#000" stroke="#000" points="2752.7 -1577.18 2746.36 -1568.69 2746.02 -1579.28 2752.7 -1577.18"/></g><g id="node11" class="node"><title>com.google.code.findbugs:jsr305:jar:3.0.2:compile</title><ellipse cx="3363.81" cy="-1781.71" fill="none" stroke="#000" rx="244.26" ry="18"/><text x="3363.81" y="-1778.01" font-family="Times,serif" font-size="14" text-anchor="middle">com.google.code.findbugs:jsr305:jar:3.0.2:compile</text></g><g id="edge10" class="edge"><title>com.google.guava:guava:jar:30.1.1-jre:compile-&gt;com.google.code.findbugs:jsr305:jar:3.0.2:compile</title><path fill="none" stroke="#000" d="M2930.07,-1867.82C3022.85,-1849.4 3171.58,-1819.87 3268.49,-1800.63"/><polygon fill="#000" stroke="#000" points="3269.46 -1804.01 3278.58 -1798.63 3268.09 -1797.14 3269.46 -1804.01"/></g><g id="node12" class="node"><title>org.checkerframework:checker-qual:jar:3.8.0:compile</title><ellipse cx="3154.05" cy="-1506.3" fill="none" stroke="#000" rx="258.85" ry="18"/><text x="3154.05" y="-1502.6" font-family="Times,serif" font-size="14" text-anchor="middle">org.checkerframework:checker-qual:jar:3.8.0:compile</text></g><g id="edge11" class="edge"><title>com.google.guava:guava:jar:30.1.1-jre:compile-&gt;org.checkerframework:checker-qual:jar:3.8.0:compile</title><path fill="none" stroke="#000" d="M2878.12,-1866.59C2951.3,-1823.64 3125.91,-1706.88 3165.94,-1550.39 3167.28,-1545.15 3167.06,-1539.57 3166.02,-1534.2"/><polygon fill="#000" stroke="#000" points="3169.3 -1532.95 3163.19 -1524.29 3162.57 -1534.87 3169.3 -1532.95"/></g><g id="node13" class="node"><title>com.google.errorprone:error_prone_annotations:jar:2.5.1:compile</title><ellipse cx="3317.5" cy="-2115.77" fill="none" stroke="#000" rx="315.44" ry="18"/><text x="3317.5" y="-2112.07" font-family="Times,serif" font-size="14" text-anchor="middle">com.google.errorprone:error_prone_annotations:jar:2.5.1:compile</text></g><g id="edge12" class="edge"><title>com.google.guava:guava:jar:30.1.1-jre:compile-&gt;com.google.errorprone:error_prone_annotations:jar:2.5.1:compile</title><path fill="none" stroke="#000" d="M2882.3,-1902.52C2967.39,-1944.22 3178.27,-2047.55 3271.7,-2093.33"/><polygon fill="#000" stroke="#000" points="3270.38 -2096.58 3280.9 -2097.83 3273.46 -2090.29 3270.38 -2096.58"/></g><g id="node14" class="node"><title>com.google.j2objc:j2objc-annotations:jar:1.3:compile</title><ellipse cx="3080.46" cy="-2361.09" fill="none" stroke="#000" rx="254.55" ry="18"/><text x="3080.46" y="-2357.39" font-family="Times,serif" font-size="14" text-anchor="middle">com.google.j2objc:j2objc-annotations:jar:1.3:compile</text></g><g id="edge13" class="edge"><title>com.google.guava:guava:jar:30.1.1-jre:compile-&gt;com.google.j2objc:j2objc-annotations:jar:1.3:compile</title><path fill="none" stroke="#000" d="M2854.58,-1902.67C2890.43,-1975.42 3024.16,-2246.83 3067.09,-2333.97"/><polygon fill="#000" stroke="#000" points="3063.97 -2335.55 3071.53 -2342.97 3070.25 -2332.45 3063.97 -2335.55"/></g><g id="node15" class="node"><title>ch.qos.reload4j:reload4j:jar:1.2.18.3:compile</title><ellipse cx="1445.68" cy="-2478.33" fill="none" stroke="#000" rx="217.96" ry="18"/><text x="1445.68" y="-2474.63" font-family="Times,serif" font-size="14" text-anchor="middle">ch.qos.reload4j:reload4j:jar:1.2.18.3:compile</text></g><g id="edge14" class="edge"><title>org.slf4j:slf4j-reload4j:jar:1.7.36:compile-&gt;ch.qos.reload4j:reload4j:jar:1.2.18.3:compile</title><path fill="none" stroke="#000" d="M1666.98,-2092.45C1630.08,-2156.8 1505.33,-2374.33 1461.26,-2451.17"/><polygon fill="#000" stroke="#000" points="1458 -2449.82 1456.06 -2460.24 1464.07 -2453.3 1458 -2449.82"/></g><g id="node16" class="node"><title>org.junit.jupiter:junit-jupiter-api:jar:5.9.0:test</title><ellipse cx="611.08" cy="-1519.55" fill="none" stroke="#000" rx="223.66" ry="18"/><text x="611.08" y="-1515.85" font-family="Times,serif" font-size="14" text-anchor="middle">org.junit.jupiter:junit-jupiter-api:jar:5.9.0:test</text></g><g id="edge15" class="edge"><title>org.junit.jupiter:junit-jupiter:jar:5.9.0:test-&gt;org.junit.jupiter:junit-jupiter-api:jar:5.9.0:test</title><path fill="none" stroke="#000" d="M1147.46,-1627.69C1032.56,-1604.52 824.42,-1562.56 703.99,-1538.28"/><polygon fill="#000" stroke="#000" points="704.54 -1534.82 694.05 -1536.27 703.16 -1541.68 704.54 -1534.82"/></g><g id="node17" class="node"><title>org.junit.jupiter:junit-jupiter-params:jar:5.9.0:test</title><ellipse cx="920.82" cy="-1944.54" fill="none" stroke="#000" rx="243.96" ry="18"/><text x="920.82" y="-1940.84" font-family="Times,serif" font-size="14" text-anchor="middle">org.junit.jupiter:junit-jupiter-params:jar:5.9.0:test</text></g><g id="edge16" class="edge"><title>org.junit.jupiter:junit-jupiter:jar:5.9.0:test-&gt;org.junit.jupiter:junit-jupiter-params:jar:5.9.0:test</title><path fill="none" stroke="#000" d="M1210.74,-1662.58C1157.75,-1714.11 1007.4,-1860.34 946.7,-1919.37"/><polygon fill="#000" stroke="#000" points="944.15 -1916.97 939.42 -1926.45 949.03 -1921.99 944.15 -1916.97"/></g><g id="node20" class="node"><title>org.junit.platform:junit-platform-engine:jar:1.9.0:test</title><ellipse cx="1339.97" cy="-749.05" fill="none" stroke="#000" rx="258.05" ry="18"/><text x="1339.97" y="-745.35" font-family="Times,serif" font-size="14" text-anchor="middle">org.junit.platform:junit-platform-engine:jar:1.9.0:test</text></g><g id="edge19" class="edge"><title>org.junit.jupiter:junit-jupiter-engine:jar:5.9.0:test-&gt;org.junit.platform:junit-platform-engine:jar:1.9.0:test</title><path fill="none" stroke="#000" d="M1692.71,-991.6C1626.22,-945.88 1450.09,-824.77 1374.85,-773.04"/><polygon fill="#000" stroke="#000" points="1376.41 -769.86 1366.18 -767.08 1372.44 -775.63 1376.41 -769.86"/></g><g id="node21" class="node"><title>org.apiguardian:apiguardian-api:jar:1.1.2:test</title><ellipse cx="1715.74" cy="-552.44" fill="none" stroke="#000" rx="223.66" ry="18"/><text x="1715.74" y="-548.74" font-family="Times,serif" font-size="14" text-anchor="middle">org.apiguardian:apiguardian-api:jar:1.1.2:test</text></g><g id="edge20" class="edge"><title>org.junit.jupiter:junit-jupiter-engine:jar:5.9.0:test-&gt;org.apiguardian:apiguardian-api:jar:1.1.2:test</title><path fill="none" stroke="#000" d="M1718.63,-991.3C1718.17,-920.92 1716.49,-666.29 1715.93,-580.72"/><polygon fill="#000" stroke="#000" points="1719.43 -580.67 1715.86 -570.69 1712.43 -580.72 1719.43 -580.67"/></g><g id="node22" class="node"><title>net.bytebuddy:byte-buddy:jar:1.12.10:test</title><ellipse cx="2106.98" cy="-2626.56" fill="none" stroke="#000" rx="207.96" ry="18"/><text x="2106.98" y="-2622.86" font-family="Times,serif" font-size="14" text-anchor="middle">net.bytebuddy:byte-buddy:jar:1.12.10:test</text></g><g id="edge21" class="edge"><title>org.assertj:assertj-core:jar:3.23.1:test-&gt;net.bytebuddy:byte-buddy:jar:1.12.10:test</title><path fill="none" stroke="#000" d="M2094.96,-2177.66C2096.86,-2248.86 2103.88,-2510.96 2106.22,-2598.15"/><polygon fill="#000" stroke="#000" points="2102.73 -2598.44 2106.49 -2608.35 2109.72 -2598.26 2102.73 -2598.44"/></g><g id="node23" class="node"><title>org.mockito:mockito-core:jar:4.6.1:test</title><ellipse cx="2624.63" cy="-461.36" fill="none" stroke="#000" rx="191.17" ry="18"/><text x="2624.63" y="-457.66" font-family="Times,serif" font-size="14" text-anchor="middle">org.mockito:mockito-core:jar:4.6.1:test</text></g><g id="edge22" class="edge"><title>org.mockito:mockito-junit-jupiter:jar:4.6.1:test-&gt;org.mockito:mockito-core:jar:4.6.1:test</title><path fill="none" stroke="#000" d="M2350.72,-987.15C2392.4,-907.14 2560.3,-584.85 2610.43,-488.62"/><polygon fill="#000" stroke="#000" points="2613.66 -490.01 2615.17 -479.52 2607.45 -486.77 2613.66 -490.01"/></g><g id="node18" class="node"><title>org.opentest4j:opentest4j:jar:1.2.0:test</title><ellipse cx="193.68" cy="-1692.13" fill="none" stroke="#000" rx="193.87" ry="18"/><text x="193.68" y="-1688.43" font-family="Times,serif" font-size="14" text-anchor="middle">org.opentest4j:opentest4j:jar:1.2.0:test</text></g><g id="edge17" class="edge"><title>org.junit.jupiter:junit-jupiter-api:jar:5.9.0:test-&gt;org.opentest4j:opentest4j:jar:1.2.0:test</title><path fill="none" stroke="#000" d="M567.99,-1537.37C490.67,-1569.34 328.72,-1636.3 245.5,-1670.71"/><polygon fill="#000" stroke="#000" points="244.14 -1667.48 236.23 -1674.54 246.81 -1673.95 244.14 -1667.48"/></g><g id="node19" class="node"><title>org.junit.platform:junit-platform-commons:jar:1.9.0:test</title><ellipse cx="297.7" cy="-1208.82" fill="none" stroke="#000" rx="270.25" ry="18"/><text x="297.7" y="-1205.12" font-family="Times,serif" font-size="14" text-anchor="middle">org.junit.platform:junit-platform-commons:jar:1.9.0:test</text></g><g id="edge18" class="edge"><title>org.junit.jupiter:junit-jupiter-api:jar:5.9.0:test-&gt;org.junit.platform:junit-platform-commons:jar:1.9.0:test</title><path fill="none" stroke="#000" d="M592.88,-1501.5C539.76,-1448.83 384.85,-1295.23 323.32,-1234.23"/><polygon fill="#000" stroke="#000" points="325.52 -1231.48 315.96 -1226.92 320.59 -1236.45 325.52 -1231.48"/></g><g id="node24" class="node"><title>net.bytebuddy:byte-buddy-agent:jar:1.12.10:test</title><ellipse cx="2586.32" cy="-18" fill="none" stroke="#000" rx="237.46" ry="18"/><text x="2586.32" y="-14.3" font-family="Times,serif" font-size="14" text-anchor="middle">net.bytebuddy:byte-buddy-agent:jar:1.12.10:test</text></g><g id="edge23" class="edge"><title>org.mockito:mockito-core:jar:4.6.1:test-&gt;net.bytebuddy:byte-buddy-agent:jar:1.12.10:test</title><path fill="none" stroke="#000" d="M2623.06,-443.15C2617.11,-374.31 2595.96,-129.6 2588.75,-46.13"/><polygon fill="#000" stroke="#000" points="2592.23 -45.78 2587.88 -36.11 2585.26 -46.38 2592.23 -45.78"/></g><g id="node25" class="node"><title>org.objenesis:objenesis:jar:3.2:test</title><ellipse cx="3006.73" cy="-238.16" fill="none" stroke="#000" rx="172.77" ry="18"/><text x="3006.73" y="-234.46" font-family="Times,serif" font-size="14" text-anchor="middle">org.objenesis:objenesis:jar:3.2:test</text></g><g id="edge24" class="edge"><title>org.mockito:mockito-core:jar:4.6.1:test-&gt;org.objenesis:objenesis:jar:3.2:test</title><path fill="none" stroke="#000" d="M2655.26,-443.47C2724.09,-403.26 2890.98,-305.77 2967.37,-261.15"/><polygon fill="#000" stroke="#000" points="2969.36 -264.05 2976.23 -255.98 2965.83 -258 2969.36 -264.05"/></g></g></svg>